<svg width="239" height="127" viewBox="0 0 239 127" fill="none" xmlns="http://www.w3.org/2000/svg">
<g clip-path="url(#clip0_2_4)">
<rect width="1440" height="892" transform="translate(-96 -277)" fill="#FFFDFD"/>
<path d="M201.409 6.07213C222.388 9.81041 236.364 29.8478 232.626 50.827C228.888 71.8062 208.85 85.7826 187.871 82.0444C166.892 78.3061 152.915 58.2687 156.654 37.2895C160.392 16.3104 180.429 2.33386 201.409 6.07213Z" fill="url(#paint0_linear_2_4)"/>
<path d="M59.1908 31.8429C83.2918 36.1374 99.3481 59.1566 95.0536 83.2577C90.759 107.359 67.7398 123.415 43.6388 119.12C19.5378 114.826 3.48143 91.8067 7.77599 67.7057C12.0706 43.6046 35.0897 27.5483 59.1908 31.8429Z" fill="url(#paint1_linear_2_4)" fill-opacity="0.56"/>
<g filter="url(#filter0_bdd_2_4)">
<path d="M15.6401 22.7636C15.6401 14.8456 22.059 8.42676 29.977 8.42676H216.356C224.274 8.42676 230.692 14.8456 230.692 22.7636V99.6611C230.692 107.579 224.274 113.998 216.356 113.998H29.977C22.059 113.998 15.6401 107.579 15.6401 99.6611V22.7636Z" fill="url(#paint2_linear_2_4)" shape-rendering="crispEdges"/>
</g>
<g filter="url(#filter1_bdd_2_4)">
<path fill-rule="evenodd" clip-rule="evenodd" d="M216.356 9.73011H29.977C22.7788 9.73011 16.9435 15.5654 16.9435 22.7636V99.6611C16.9435 106.859 22.7788 112.695 29.977 112.695H216.356C223.554 112.695 229.389 106.859 229.389 99.6611V22.7636C229.389 15.5654 223.554 9.73011 216.356 9.73011ZM29.977 8.42676C22.059 8.42676 15.6401 14.8456 15.6401 22.7636V99.6611C15.6401 107.579 22.0589 113.998 29.977 113.998H216.356C224.274 113.998 230.692 107.579 230.692 99.6611V22.7636C230.692 14.8456 224.274 8.42676 216.356 8.42676H29.977Z" fill="url(#paint3_linear_2_4)" shape-rendering="crispEdges"/>
</g>
<path fill-rule="evenodd" clip-rule="evenodd" d="M39.1005 68.3808C43.4194 68.3808 46.9206 64.8796 46.9206 60.5607C46.9206 56.2418 43.4194 52.7406 39.1005 52.7406C34.7816 52.7406 31.2804 56.2418 31.2804 60.5607C31.2804 64.8796 34.7816 68.3808 39.1005 68.3808ZM39.1005 69.6841C44.1392 69.6841 48.2239 65.5994 48.2239 60.5607C48.2239 55.522 44.1392 51.4373 39.1005 51.4373C34.0618 51.4373 29.9771 55.522 29.9771 60.5607C29.9771 65.5994 34.0618 69.6841 39.1005 69.6841Z" fill="white"/>
<path d="M77.3967 64.4708L75.6255 61.7142L74.0184 64.4708H72.1651L74.7457 60.3418L72.1299 56.2831H74.0184L75.7897 59.028L77.385 56.2831H79.2383L76.6694 60.4004L79.2853 64.4708H77.3967Z" fill="#5F5F5F"/>
<path d="M87.5497 64.4708L85.7784 61.7142L84.1714 64.4708H82.318L84.8987 60.3418L82.2829 56.2831H84.1714L85.9427 59.028L87.538 56.2831H89.3913L86.8224 60.4004L89.4382 64.4708H87.5497Z" fill="#5F5F5F"/>
<path d="M97.7027 64.4708L95.9314 61.7142L94.3244 64.4708H92.471L95.0517 60.3418L92.4358 56.2831H94.3244L96.0956 59.028L97.6909 56.2831H99.5443L96.9754 60.4004L99.5912 64.4708H97.7027Z" fill="#5F5F5F"/>
<path d="M107.856 64.4708L106.084 61.7142L104.477 64.4708H102.624L105.205 60.3418L102.589 56.2831H104.477L106.249 59.028L107.844 56.2831H109.697L107.128 60.4004L109.744 64.4708H107.856Z" fill="#5F5F5F"/>
<path d="M127.567 62.8051V61.5148L131.403 56.0251H133.315V61.374H134.347V62.8051H133.315V64.4708H131.672V62.8051H127.567ZM131.778 57.7846L129.373 61.374H131.778V57.7846Z" fill="#5F5F5F"/>
<path d="M137.504 60.0837C137.504 58.7308 137.746 57.6712 138.231 56.9048C138.724 56.1385 139.537 55.7553 140.671 55.7553C141.805 55.7553 142.614 56.1385 143.099 56.9048C143.592 57.6712 143.838 58.7308 143.838 60.0837C143.838 61.4444 143.592 62.5118 143.099 63.286C142.614 64.0602 141.805 64.4473 140.671 64.4473C139.537 64.4473 138.724 64.0602 138.231 63.286C137.746 62.5118 137.504 61.4444 137.504 60.0837ZM142.219 60.0837C142.219 59.505 142.18 59.0202 142.102 58.6292C142.032 58.2303 141.883 57.9058 141.656 57.6556C141.437 57.4053 141.109 57.2802 140.671 57.2802C140.233 57.2802 139.901 57.4053 139.674 57.6556C139.455 57.9058 139.306 58.2303 139.228 58.6292C139.158 59.0202 139.123 59.505 139.123 60.0837C139.123 60.678 139.158 61.1785 139.228 61.5852C139.299 61.984 139.447 62.3085 139.674 62.5588C139.901 62.8012 140.233 62.9224 140.671 62.9224C141.109 62.9224 141.441 62.8012 141.668 62.5588C141.895 62.3085 142.043 61.984 142.114 61.5852C142.184 61.1785 142.219 60.678 142.219 60.0837Z" fill="#5F5F5F"/>
<path d="M147.715 62.6174C148.465 61.9918 149.064 61.4718 149.509 61.0573C149.955 60.635 150.327 60.1971 150.624 59.7435C150.921 59.29 151.07 58.8442 151.07 58.4063C151.07 58.0075 150.976 57.6947 150.788 57.4679C150.6 57.2411 150.311 57.1277 149.92 57.1277C149.529 57.1277 149.228 57.2606 149.017 57.5265C148.806 57.7846 148.696 58.1404 148.688 58.594H147.093C147.124 57.6556 147.402 56.9439 147.926 56.4591C148.458 55.9742 149.13 55.7318 149.943 55.7318C150.835 55.7318 151.519 55.9703 151.996 56.4474C152.473 56.9166 152.712 57.5383 152.712 58.3125C152.712 58.9224 152.548 59.505 152.219 60.0602C151.891 60.6155 151.515 61.1003 151.093 61.5148C150.671 61.9214 150.119 62.4141 149.439 62.9928H152.899V64.3535H147.105V63.1335L147.715 62.6174Z" fill="#5F5F5F"/>
<path d="M156.069 58.1717C156.108 57.3897 156.382 56.7875 156.89 56.3652C157.406 55.9351 158.083 55.7201 158.92 55.7201C159.49 55.7201 159.979 55.8218 160.386 56.0251C160.792 56.2206 161.097 56.4904 161.301 56.8345C161.512 57.1707 161.617 57.5539 161.617 57.984C161.617 58.4767 161.488 58.895 161.23 59.2391C160.98 59.5754 160.679 59.8022 160.327 59.9195V59.9664C160.781 60.1072 161.133 60.3574 161.383 60.7171C161.641 61.0769 161.77 61.5382 161.77 62.1013C161.77 62.5705 161.66 62.9889 161.441 63.3564C161.23 63.7239 160.914 64.0133 160.491 64.2244C160.077 64.4278 159.576 64.5294 158.99 64.5294C158.106 64.5294 157.387 64.3065 156.832 63.8608C156.276 63.4151 155.983 62.7582 155.952 61.8901H157.547C157.563 62.2733 157.692 62.5822 157.934 62.8168C158.184 63.0436 158.525 63.157 158.955 63.157C159.354 63.157 159.659 63.0475 159.87 62.8286C160.089 62.6018 160.198 62.3124 160.198 61.9605C160.198 61.4913 160.05 61.1551 159.752 60.9517C159.455 60.7484 158.994 60.6467 158.368 60.6467H158.028V59.2978H158.368C159.479 59.2978 160.034 58.9263 160.034 58.1834C160.034 57.8472 159.932 57.5852 159.729 57.3975C159.533 57.2098 159.248 57.116 158.873 57.116C158.505 57.116 158.22 57.2176 158.016 57.421C157.821 57.6165 157.707 57.8667 157.676 58.1717H156.069Z" fill="#5F5F5F"/>
<g clip-path="url(#clip1_2_4)">
<path d="M203.293 56.6647C201.166 56.6647 199.266 57.6978 199.266 59.6065C199.266 61.7955 202.636 61.9467 202.636 63.0463C202.636 63.5093 202.07 63.9238 201.103 63.9238C199.731 63.9238 198.705 63.3447 198.705 63.3447L198.267 65.2708C198.267 65.2708 199.448 65.76 201.017 65.76C203.341 65.76 205.171 64.6762 205.171 62.7348C205.171 60.4218 201.787 60.2751 201.787 59.2544C201.787 58.8917 202.251 58.4943 203.215 58.4943C204.303 58.4943 205.191 58.9155 205.191 58.9155L205.62 57.0552C205.62 57.0552 204.654 56.6647 203.293 56.6647ZM183.838 56.8051L183.787 57.0859C183.787 57.0859 184.682 57.2393 185.487 57.5455C186.525 57.8965 186.599 58.1009 186.773 58.7356L188.677 65.6152H191.229L195.161 56.8051H192.615L190.088 62.7951L189.057 57.7177C188.963 57.1366 188.484 56.8051 187.898 56.8051H183.838ZM196.185 56.8051L194.187 65.6152H196.616L198.606 56.8051H196.185ZM209.727 56.8051C209.142 56.8051 208.832 57.0989 208.604 57.6124L205.047 65.6152H207.593L208.086 64.2814H211.188L211.487 65.6152H213.734L211.774 56.8051H209.727ZM210.059 59.1853L210.813 62.4913H208.791L210.059 59.1853Z" fill="white"/>
</g>
</g>
<defs>
<filter id="filter0_bdd_2_4" x="-4.35986" y="-11.5732" width="255.052" height="145.571" filterUnits="userSpaceOnUse" color-interpolation-filters="sRGB">
<feFlood flood-opacity="0" result="BackgroundImageFix"/>
<feGaussianBlur in="BackgroundImage" stdDeviation="10"/>
<feComposite in2="SourceAlpha" operator="in" result="effect1_backgroundBlur_2_4"/>
<feColorMatrix in="SourceAlpha" type="matrix" values="0 0 0 0 0 0 0 0 0 0 0 0 0 0 0 0 0 0 127 0" result="hardAlpha"/>
<feOffset dx="4" dy="4"/>
<feGaussianBlur stdDeviation="3.5"/>
<feComposite in2="hardAlpha" operator="out"/>
<feColorMatrix type="matrix" values="0 0 0 0 0.241667 0 0 0 0 0.241667 0 0 0 0 0.241667 0 0 0 0.08 0"/>
<feBlend mode="normal" in2="effect1_backgroundBlur_2_4" result="effect2_dropShadow_2_4"/>
<feColorMatrix in="SourceAlpha" type="matrix" values="0 0 0 0 0 0 0 0 0 0 0 0 0 0 0 0 0 0 127 0" result="hardAlpha"/>
<feOffset dx="-4" dy="-4"/>
<feGaussianBlur stdDeviation="5.5"/>
<feComposite in2="hardAlpha" operator="out"/>
<feColorMatrix type="matrix" values="0 0 0 0 0.370833 0 0 0 0 0.370833 0 0 0 0 0.370833 0 0 0 0.06 0"/>
<feBlend mode="normal" in2="effect2_dropShadow_2_4" result="effect3_dropShadow_2_4"/>
<feBlend mode="normal" in="SourceGraphic" in2="effect3_dropShadow_2_4" result="shape"/>
</filter>
<filter id="filter1_bdd_2_4" x="-4.35986" y="-11.5732" width="255.052" height="145.571" filterUnits="userSpaceOnUse" color-interpolation-filters="sRGB">
<feFlood flood-opacity="0" result="BackgroundImageFix"/>
<feGaussianBlur in="BackgroundImage" stdDeviation="10"/>
<feComposite in2="SourceAlpha" operator="in" result="effect1_backgroundBlur_2_4"/>
<feColorMatrix in="SourceAlpha" type="matrix" values="0 0 0 0 0 0 0 0 0 0 0 0 0 0 0 0 0 0 127 0" result="hardAlpha"/>
<feOffset dx="4" dy="4"/>
<feGaussianBlur stdDeviation="3.5"/>
<feComposite in2="hardAlpha" operator="out"/>
<feColorMatrix type="matrix" values="0 0 0 0 0.241667 0 0 0 0 0.241667 0 0 0 0 0.241667 0 0 0 0.17 0"/>
<feBlend mode="normal" in2="effect1_backgroundBlur_2_4" result="effect2_dropShadow_2_4"/>
<feColorMatrix in="SourceAlpha" type="matrix" values="0 0 0 0 0 0 0 0 0 0 0 0 0 0 0 0 0 0 127 0" result="hardAlpha"/>
<feOffset dx="-4" dy="-4"/>
<feGaussianBlur stdDeviation="5.5"/>
<feComposite in2="hardAlpha" operator="out"/>
<feColorMatrix type="matrix" values="0 0 0 0 0.370833 0 0 0 0 0.370833 0 0 0 0 0.370833 0 0 0 0.25 0"/>
<feBlend mode="normal" in2="effect2_dropShadow_2_4" result="effect3_dropShadow_2_4"/>
<feBlend mode="normal" in="SourceGraphic" in2="effect3_dropShadow_2_4" result="shape"/>
</filter>
<linearGradient id="paint0_linear_2_4" x1="120.329" y1="60.4757" x2="173.017" y2="-22.4389" gradientUnits="userSpaceOnUse">
<stop offset="0.279057" stop-color="#FC4D6D"/>
<stop offset="1" stop-color="#FDA02F"/>
</linearGradient>
<linearGradient id="paint1_linear_2_4" x1="-33.9547" y1="94.3422" x2="26.5742" y2="-0.910859" gradientUnits="userSpaceOnUse">
<stop offset="0.279057" stop-color="#FC4D6D"/>
<stop offset="1" stop-color="#FDA02F"/>
</linearGradient>
<linearGradient id="paint2_linear_2_4" x1="57.4559" y1="8.42676" x2="92.1735" y2="119.249" gradientUnits="userSpaceOnUse">
<stop offset="0.330382" stop-color="white" stop-opacity="0.4"/>
<stop offset="1" stop-color="white" stop-opacity="0.1"/>
</linearGradient>
<linearGradient id="paint3_linear_2_4" x1="-33.4479" y1="15.2466" x2="12.0434" y2="183.858" gradientUnits="userSpaceOnUse">
<stop offset="0.242708" stop-color="white" stop-opacity="0.08"/>
<stop offset="1" stop-color="white"/>
</linearGradient>
<clipPath id="clip0_2_4">
<rect width="1440" height="892" fill="white" transform="translate(-96 -277)"/>
</clipPath>
<clipPath id="clip1_2_4">
<rect width="29.977" height="9.12343" fill="white" transform="translate(183.772 56.6506)"/>
</clipPath>
</defs>
</svg>
