<svg width="232" height="129" viewBox="0 0 232 129" fill="none" xmlns="http://www.w3.org/2000/svg">
<g clip-path="url(#clip0_2_4)">
<rect width="1440" height="892" transform="translate(-342 -275)" fill="#FFFDFD"/>
<path d="M188.555 7.77599C212.656 12.0706 228.712 35.0897 224.418 59.1908C220.123 83.2918 197.104 99.3481 173.003 95.0536C148.902 90.759 132.845 67.7398 137.14 43.6388C141.435 19.5378 164.454 3.48143 188.555 7.77599Z" fill="url(#paint0_linear_2_4)"/>
<path d="M52.4534 47.1845C69.4302 50.2096 80.7402 66.4243 77.7151 83.401C74.69 100.378 58.4754 111.688 41.4986 108.663C24.5219 105.638 13.2118 89.4229 16.2369 72.4462C19.262 55.4695 35.4767 44.1594 52.4534 47.1845Z" fill="url(#paint1_linear_2_4)" fill-opacity="0.56"/>
<g filter="url(#filter0_bdd_2_4)">
<path d="M8.15271 24.7636C8.15271 16.8456 14.5715 10.4268 22.4895 10.4268H208.868C216.786 10.4268 223.205 16.8456 223.205 24.7636V101.661C223.205 109.579 216.786 115.998 208.868 115.998H22.4895C14.5715 115.998 8.15271 109.579 8.15271 101.661V24.7636Z" fill="url(#paint2_linear_2_4)" shape-rendering="crispEdges"/>
</g>
<g filter="url(#filter1_bdd_2_4)">
<path fill-rule="evenodd" clip-rule="evenodd" d="M208.868 11.7301H22.4895C15.2913 11.7301 9.45606 17.5654 9.45606 24.7636V101.661C9.45606 108.859 15.2913 114.695 22.4895 114.695H208.868C216.066 114.695 221.902 108.859 221.902 101.661V24.7636C221.902 17.5654 216.066 11.7301 208.868 11.7301ZM22.4895 10.4268C14.5715 10.4268 8.15271 16.8456 8.15271 24.7636V101.661C8.15271 109.579 14.5715 115.998 22.4895 115.998H208.868C216.786 115.998 223.205 109.579 223.205 101.661V24.7636C223.205 16.8456 216.786 10.4268 208.868 10.4268H22.4895Z" fill="url(#paint3_linear_2_4)" shape-rendering="crispEdges"/>
</g>
<path fill-rule="evenodd" clip-rule="evenodd" d="M34.2196 70.3808C38.5385 70.3808 42.0397 66.8796 42.0397 62.5607C42.0397 58.2418 38.5385 54.7406 34.2196 54.7406C29.9007 54.7406 26.3995 58.2418 26.3995 62.5607C26.3995 66.8796 29.9007 70.3808 34.2196 70.3808ZM34.2196 71.6841C39.2584 71.6841 43.3431 67.5994 43.3431 62.5607C43.3431 57.522 39.2584 53.4373 34.2196 53.4373C29.1809 53.4373 25.0962 57.522 25.0962 62.5607C25.0962 67.5994 29.1809 71.6841 34.2196 71.6841Z" fill="white"/>
<path d="M72.516 66.4708L70.7447 63.7142L69.1377 66.4708H67.2843L69.865 62.3418L67.2491 58.2831H69.1377L70.9089 61.028L72.5042 58.2831H74.3576L71.7887 62.4004L74.4045 66.4708H72.516Z" fill="#5F5F5F"/>
<path d="M82.6689 66.4708L80.8977 63.7142L79.2907 66.4708H77.4373L80.0179 62.3418L77.4021 58.2831H79.2907L81.0619 61.028L82.6572 58.2831H84.5106L81.9417 62.4004L84.5575 66.4708H82.6689Z" fill="#5F5F5F"/>
<path d="M92.8219 66.4708L91.0507 63.7142L89.4436 66.4708H87.5903L90.1709 62.3418L87.5551 58.2831H89.4436L91.2149 61.028L92.8102 58.2831H94.6636L92.0947 62.4004L94.7105 66.4708H92.8219Z" fill="#5F5F5F"/>
<path d="M102.975 66.4708L101.204 63.7142L99.5966 66.4708H97.7433L100.324 62.3418L97.7081 58.2831H99.5966L101.368 61.028L102.963 58.2831H104.817L102.248 62.4004L104.863 66.4708H102.975Z" fill="#5F5F5F"/>
<path d="M122.686 64.8051V63.5148L126.522 58.0251H128.434V63.374H129.466V64.8051H128.434V66.4708H126.792V64.8051H122.686ZM126.897 59.7846L124.493 63.374H126.897V59.7846Z" fill="#5F5F5F"/>
<path d="M132.623 62.0837C132.623 60.7308 132.865 59.6712 133.35 58.9048C133.843 58.1385 134.656 57.7553 135.79 57.7553C136.924 57.7553 137.733 58.1385 138.218 58.9048C138.711 59.6712 138.957 60.7308 138.957 62.0837C138.957 63.4444 138.711 64.5118 138.218 65.286C137.733 66.0602 136.924 66.4473 135.79 66.4473C134.656 66.4473 133.843 66.0602 133.35 65.286C132.865 64.5118 132.623 63.4444 132.623 62.0837ZM137.339 62.0837C137.339 61.505 137.299 61.0202 137.221 60.6292C137.151 60.2303 137.002 59.9058 136.776 59.6556C136.557 59.4053 136.228 59.2802 135.79 59.2802C135.352 59.2802 135.02 59.4053 134.793 59.6556C134.574 59.9058 134.426 60.2303 134.347 60.6292C134.277 61.0202 134.242 61.505 134.242 62.0837C134.242 62.678 134.277 63.1785 134.347 63.5852C134.418 63.984 134.566 64.3085 134.793 64.5588C135.02 64.8012 135.352 64.9224 135.79 64.9224C136.228 64.9224 136.56 64.8012 136.787 64.5588C137.014 64.3085 137.163 63.984 137.233 63.5852C137.303 63.1785 137.339 62.678 137.339 62.0837Z" fill="#5F5F5F"/>
<path d="M142.834 64.6174C143.585 63.9918 144.183 63.4718 144.629 63.0573C145.074 62.635 145.446 62.1971 145.743 61.7435C146.04 61.29 146.189 60.8442 146.189 60.4063C146.189 60.0075 146.095 59.6947 145.907 59.4679C145.72 59.2411 145.43 59.1277 145.039 59.1277C144.648 59.1277 144.347 59.2606 144.136 59.5265C143.925 59.7846 143.815 60.1404 143.808 60.594H142.212C142.244 59.6556 142.521 58.9439 143.045 58.4591C143.577 57.9742 144.249 57.7318 145.063 57.7318C145.954 57.7318 146.638 57.9703 147.115 58.4474C147.592 58.9166 147.831 59.5383 147.831 60.3125C147.831 60.9224 147.667 61.505 147.338 62.0602C147.01 62.6155 146.635 63.1003 146.212 63.5148C145.79 63.9214 145.239 64.4141 144.558 64.9928H148.019V66.3535H142.224V65.1335L142.834 64.6174Z" fill="#5F5F5F"/>
<path d="M151.188 60.1717C151.227 59.3897 151.501 58.7875 152.009 58.3652C152.526 57.9351 153.202 57.7201 154.039 57.7201C154.61 57.7201 155.098 57.8218 155.505 58.0251C155.912 58.2206 156.217 58.4904 156.42 58.8345C156.631 59.1707 156.737 59.5539 156.737 59.984C156.737 60.4767 156.608 60.895 156.35 61.2391C156.099 61.5754 155.798 61.8022 155.446 61.9195V61.9664C155.9 62.1072 156.252 62.3574 156.502 62.7171C156.76 63.0769 156.889 63.5382 156.889 64.1013C156.889 64.5705 156.78 64.9889 156.561 65.3564C156.35 65.7239 156.033 66.0133 155.611 66.2244C155.196 66.4278 154.696 66.5294 154.109 66.5294C153.226 66.5294 152.506 66.3065 151.951 65.8608C151.396 65.4151 151.102 64.7582 151.071 63.8901H152.666C152.682 64.2733 152.811 64.5822 153.053 64.8168C153.304 65.0436 153.644 65.157 154.074 65.157C154.473 65.157 154.778 65.0475 154.989 64.8286C155.208 64.6018 155.317 64.3124 155.317 63.9605C155.317 63.4913 155.169 63.1551 154.872 62.9517C154.574 62.7484 154.113 62.6467 153.487 62.6467H153.147V61.2978H153.487C154.598 61.2978 155.153 60.9263 155.153 60.1834C155.153 59.8472 155.051 59.5852 154.848 59.3975C154.653 59.2098 154.367 59.116 153.992 59.116C153.624 59.116 153.339 59.2176 153.136 59.421C152.94 59.6165 152.827 59.8667 152.795 60.1717H151.188Z" fill="#5F5F5F"/>
<g clip-path="url(#clip1_2_4)">
<path fill-rule="evenodd" clip-rule="evenodd" d="M190.801 57.5949H196.731V68.8502H190.801V57.5949Z" fill="#FF8136"/>
<path fill-rule="evenodd" clip-rule="evenodd" d="M191.178 63.2225C191.178 65.506 192.19 67.5397 193.766 68.8502C192.614 69.8088 191.159 70.3806 189.578 70.3806C185.835 70.3806 182.801 67.1758 182.801 63.2225C182.801 59.2693 185.835 56.0645 189.578 56.0645C191.159 56.0645 192.614 56.6363 193.766 57.5949C192.19 58.9056 191.178 60.9391 191.178 63.2225Z" fill="#EB001B"/>
<path fill-rule="evenodd" clip-rule="evenodd" d="M204.52 58.787V59.0648H204.451L204.372 58.8737L204.293 59.0648H204.225V58.787H204.273V58.9966L204.347 58.8159H204.397L204.472 58.997V58.787H204.52ZM204.085 58.787V59.0175H204.173V59.0644H203.949V59.0175H204.037V58.787H204.085ZM204.732 63.2227C204.732 59.2694 201.697 56.0646 197.955 56.0646C196.374 56.0646 194.919 56.6364 193.766 57.595C195.343 58.9055 196.355 60.9392 196.355 63.2227C196.355 65.5059 195.343 67.5396 193.766 68.8503C194.919 69.8089 196.374 70.3807 197.955 70.3807C201.697 70.3807 204.732 67.1759 204.732 63.2227Z" fill="#EDE51F"/>
</g>
</g>
<defs>
<filter id="filter0_bdd_2_4" x="-11.8473" y="-9.57324" width="255.052" height="145.571" filterUnits="userSpaceOnUse" color-interpolation-filters="sRGB">
<feFlood flood-opacity="0" result="BackgroundImageFix"/>
<feGaussianBlur in="BackgroundImage" stdDeviation="10"/>
<feComposite in2="SourceAlpha" operator="in" result="effect1_backgroundBlur_2_4"/>
<feColorMatrix in="SourceAlpha" type="matrix" values="0 0 0 0 0 0 0 0 0 0 0 0 0 0 0 0 0 0 127 0" result="hardAlpha"/>
<feOffset dx="4" dy="4"/>
<feGaussianBlur stdDeviation="3.5"/>
<feComposite in2="hardAlpha" operator="out"/>
<feColorMatrix type="matrix" values="0 0 0 0 0.241667 0 0 0 0 0.241667 0 0 0 0 0.241667 0 0 0 0.08 0"/>
<feBlend mode="normal" in2="effect1_backgroundBlur_2_4" result="effect2_dropShadow_2_4"/>
<feColorMatrix in="SourceAlpha" type="matrix" values="0 0 0 0 0 0 0 0 0 0 0 0 0 0 0 0 0 0 127 0" result="hardAlpha"/>
<feOffset dx="-4" dy="-4"/>
<feGaussianBlur stdDeviation="5.5"/>
<feComposite in2="hardAlpha" operator="out"/>
<feColorMatrix type="matrix" values="0 0 0 0 0.370833 0 0 0 0 0.370833 0 0 0 0 0.370833 0 0 0 0.06 0"/>
<feBlend mode="normal" in2="effect2_dropShadow_2_4" result="effect3_dropShadow_2_4"/>
<feBlend mode="normal" in="SourceGraphic" in2="effect3_dropShadow_2_4" result="shape"/>
</filter>
<filter id="filter1_bdd_2_4" x="-11.8473" y="-9.57324" width="255.052" height="145.571" filterUnits="userSpaceOnUse" color-interpolation-filters="sRGB">
<feFlood flood-opacity="0" result="BackgroundImageFix"/>
<feGaussianBlur in="BackgroundImage" stdDeviation="10"/>
<feComposite in2="SourceAlpha" operator="in" result="effect1_backgroundBlur_2_4"/>
<feColorMatrix in="SourceAlpha" type="matrix" values="0 0 0 0 0 0 0 0 0 0 0 0 0 0 0 0 0 0 127 0" result="hardAlpha"/>
<feOffset dx="4" dy="4"/>
<feGaussianBlur stdDeviation="3.5"/>
<feComposite in2="hardAlpha" operator="out"/>
<feColorMatrix type="matrix" values="0 0 0 0 0.241667 0 0 0 0 0.241667 0 0 0 0 0.241667 0 0 0 0.17 0"/>
<feBlend mode="normal" in2="effect1_backgroundBlur_2_4" result="effect2_dropShadow_2_4"/>
<feColorMatrix in="SourceAlpha" type="matrix" values="0 0 0 0 0 0 0 0 0 0 0 0 0 0 0 0 0 0 127 0" result="hardAlpha"/>
<feOffset dx="-4" dy="-4"/>
<feGaussianBlur stdDeviation="5.5"/>
<feComposite in2="hardAlpha" operator="out"/>
<feColorMatrix type="matrix" values="0 0 0 0 0.370833 0 0 0 0 0.370833 0 0 0 0 0.370833 0 0 0 0.25 0"/>
<feBlend mode="normal" in2="effect2_dropShadow_2_4" result="effect3_dropShadow_2_4"/>
<feBlend mode="normal" in="SourceGraphic" in2="effect3_dropShadow_2_4" result="shape"/>
</filter>
<linearGradient id="paint0_linear_2_4" x1="95.4093" y1="70.2753" x2="155.938" y2="-24.9778" gradientUnits="userSpaceOnUse">
<stop offset="0.279057" stop-color="#FC4D6D"/>
<stop offset="1" stop-color="#FDA02F"/>
</linearGradient>
<linearGradient id="paint1_linear_2_4" x1="-13.1581" y1="91.2089" x2="29.4783" y2="24.1128" gradientUnits="userSpaceOnUse">
<stop offset="0.279057" stop-color="#FC4D6D"/>
<stop offset="1" stop-color="#FDA02F"/>
</linearGradient>
<linearGradient id="paint2_linear_2_4" x1="49.9684" y1="10.4268" x2="84.686" y2="121.249" gradientUnits="userSpaceOnUse">
<stop offset="0.330382" stop-color="white" stop-opacity="0.4"/>
<stop offset="1" stop-color="white" stop-opacity="0.1"/>
</linearGradient>
<linearGradient id="paint3_linear_2_4" x1="-40.9353" y1="17.2466" x2="4.55595" y2="185.858" gradientUnits="userSpaceOnUse">
<stop offset="0.242708" stop-color="white" stop-opacity="0.08"/>
<stop offset="1" stop-color="white"/>
</linearGradient>
<clipPath id="clip0_2_4">
<rect width="1440" height="892" fill="white" transform="translate(-342 -275)"/>
</clipPath>
<clipPath id="clip1_2_4">
<rect width="22.1569" height="14.3368" fill="white" transform="matrix(1 0 0 -1 182.801 70.3807)"/>
</clipPath>
</defs>
</svg>
